<svg xmlns="http://www.w3.org/2000/svg" width="129.983" height="42.2" viewBox="0 0 129.983 42.2">
  <g id="logo" transform="translate(-10.8 -1)">
    <g id="Group_176" data-name="Group 176" transform="translate(10.8 1)">
      <g id="Group_173" data-name="Group 173" transform="translate(0 0)">
        <g id="Group_172" data-name="Group 172">
          <circle id="Ellipse_99" data-name="Ellipse 99" cx="21.1" cy="21.1" r="21.1" fill="#fdcd2e"/>
          <circle id="Ellipse_100" data-name="Ellipse 100" cx="18.879" cy="18.879" r="18.879" transform="translate(2.081 2.221)" fill="#fdcd2e"/>
          <path id="Path_1030" data-name="Path 1030" d="M72.264,85.528a19.366,19.366,0,1,1,13.694-5.67A19.247,19.247,0,0,1,72.264,85.528Zm0-37.758A18.392,18.392,0,1,0,90.658,66.16,18.416,18.416,0,0,0,72.264,47.77Z" transform="translate(-51.304 -45.064)" fill="#010101"/>
        </g>
      </g>
      <g id="Group_174" data-name="Group 174" transform="translate(11.548 6.769)">
        <path id="Path_1031" data-name="Path 1031" d="M318.784,372.311a3.117,3.117,0,0,1-2.3-.963,3.333,3.333,0,0,1-.925-3.04,3.632,3.632,0,0,1,2.566-2.52,16.84,16.84,0,0,1,5.674-.97,3.763,3.763,0,0,1,1.19-.117c.379,0,.826.019,1.33.053a.083.083,0,0,1,.03,0c.534.1,1.2.2,1.9.311,1.054.163,2.145.334,2.953.512a4.079,4.079,0,0,1,2.721,1.732,3.237,3.237,0,0,1,.3,2.581,3.19,3.19,0,0,1-3.074,2.384,3.6,3.6,0,0,1-1.418-.3c-.015,0-.027-.015-.042-.019a8.732,8.732,0,0,0-4.795-1.671,6.831,6.831,0,0,0-3.153.8c-.091.064-.174.129-.254.19a3.779,3.779,0,0,1-2.361,1.023C319,372.307,318.89,372.311,318.784,372.311Zm4.867-7.008a16.349,16.349,0,0,0-5.371.948,3.061,3.061,0,0,0-2.248,2.164,2.838,2.838,0,0,0,.792,2.585,2.762,2.762,0,0,0,2.259.811,3.34,3.34,0,0,0,2.107-.929c.087-.061.178-.129.273-.2a.343.343,0,0,1,.034-.019,7.415,7.415,0,0,1,3.392-.864,9.193,9.193,0,0,1,5.045,1.74,3.106,3.106,0,0,0,1.209.254,2.716,2.716,0,0,0,2.608-2.024,2.77,2.77,0,0,0-.243-2.206,3.625,3.625,0,0,0-2.414-1.512c-.788-.178-1.872-.345-2.922-.5-.7-.11-1.361-.208-1.9-.311-.493-.034-.925-.053-1.285-.053a3.665,3.665,0,0,0-1.016.083c-.042.038-.068.034-.133.034S323.715,365.3,323.651,365.3Z" transform="translate(-315.482 -357.684)" fill="#010101"/>
        <path id="Path_1032" data-name="Path 1032" d="M478.392,563.3a.246.246,0,0,1-.114-.462,7.26,7.26,0,0,1,6.383,0,.248.248,0,0,1,.1.33.244.244,0,0,1-.326.106,6.737,6.737,0,0,0-5.932,0A.25.25,0,0,1,478.392,563.3Z" transform="translate(-471.982 -547.602)" fill="#010101"/>
        <path id="Path_1033" data-name="Path 1033" d="M499.94,255.563a.236.236,0,0,1-.216-.136.239.239,0,0,1,.114-.326,1.8,1.8,0,0,0,1.023-1.819,2.119,2.119,0,0,0-.678-1.372,2.349,2.349,0,0,0-1.611-.724,2.476,2.476,0,0,0-2.183,2.111,1.828,1.828,0,0,0,1.088,1.8.248.248,0,0,1,.11.33.244.244,0,0,1-.33.106,2.3,2.3,0,0,1-1.357-2.24,2.944,2.944,0,0,1,2.672-2.6,2.833,2.833,0,0,1,1.956.864,2.565,2.565,0,0,1,.823,1.717,2.264,2.264,0,0,1-1.3,2.255A.249.249,0,0,1,499.94,255.563Z" transform="translate(-489.062 -248.005)" fill="#010101"/>
        <path id="Path_1034" data-name="Path 1034" d="M474.239,525.754a3.45,3.45,0,0,1-2.505-1.474c-1.073-1.277-1.141-3.6-1.137-4.287a.241.241,0,0,1,.243-.239h0a.242.242,0,0,1,.243.243,6.73,6.73,0,0,0,1.023,3.968,2.948,2.948,0,0,0,2.179,1.308,2.7,2.7,0,0,0,1.941-1.3,8.108,8.108,0,0,0,1.232-4.059.241.241,0,1,1,.481.034,8.506,8.506,0,0,1-1.327,4.317,3.106,3.106,0,0,1-2.316,1.49A.327.327,0,0,0,474.239,525.754Z" transform="translate(-464.717 -506.8)" fill="#010101"/>
        <path id="Path_1035" data-name="Path 1035" d="M498.688,427.1a.252.252,0,0,1-.159-.061.249.249,0,0,1-.023-.345c.489-.557,1.956-.606,2.562-.6a5.038,5.038,0,0,1,2.555.527.241.241,0,0,1,.03.341.245.245,0,0,1-.341.03c-.6-.508-3.9-.6-4.438.027A.243.243,0,0,1,498.688,427.1Z" transform="translate(-491.512 -416.752)" fill="#010101"/>
        <path id="Path_1036" data-name="Path 1036" d="M706.511,468.759a.249.249,0,0,1-.231-.167,3.118,3.118,0,0,0-2.517-1.929.244.244,0,0,1,.129-.47,3.612,3.612,0,0,1,2.85,2.244.244.244,0,0,1-.152.307A.2.2,0,0,1,706.511,468.759Z" transform="translate(-688.875 -455.322)" fill="#010101"/>
        <path id="Path_1037" data-name="Path 1037" d="M470.843,364.127a.242.242,0,0,1-.243-.243c0-1.509,2.3-5.458,2.646-6a1.306,1.306,0,0,1,1.122-.421.969.969,0,0,1,.849.383c.227.417.5.864.781,1.334.913,1.512,1.948,3.225,1.948,4.673a.243.243,0,0,1-.485,0c0-1.311-1-2.964-1.876-4.419-.288-.478-.561-.925-.792-1.353-.019-.038-.159-.121-.44-.133a.9.9,0,0,0-.694.2c-.523.819-2.57,4.476-2.57,5.738A.242.242,0,0,1,470.843,364.127Z" transform="translate(-464.721 -350.721)" fill="#010101"/>
        <path id="Path_1038" data-name="Path 1038" d="M571.677,193.451a.129.129,0,0,1-.053-.008.242.242,0,0,1-.182-.288c.224-1,.656-2.172,2-2.278a.243.243,0,0,1,.042.485c-1.02.083-1.353.963-1.562,1.9A.262.262,0,0,1,571.677,193.451Z" transform="translate(-561.734 -190.449)" fill="#010101"/>
        <path id="Path_1039" data-name="Path 1039" d="M509.462,193.555a.243.243,0,0,1-.231-.167l0-.011c-.292-.891-.542-1.66-1.471-1.914a.243.243,0,0,1,.125-.47c1.183.322,1.5,1.3,1.8,2.232l0,.011a.245.245,0,0,1-.155.307A.238.238,0,0,1,509.462,193.555Z" transform="translate(-500.297 -190.553)" fill="#010101"/>
        <circle id="Ellipse_101" data-name="Ellipse 101" cx="0.523" cy="0.523" r="0.523" transform="translate(13.463 10.499)" fill="#010101"/>
        <circle id="Ellipse_102" data-name="Ellipse 102" cx="0.523" cy="0.523" r="0.523" transform="translate(4.807 10.499)" fill="#010101"/>
        <path id="Path_1040" data-name="Path 1040" d="M618.667,180.938a.669.669,0,1,0-.667-.667A.668.668,0,0,0,618.667,180.938Zm0-.853a.182.182,0,1,1-.178.182A.182.182,0,0,1,618.667,180.085Z" transform="translate(-606.534 -179.6)" fill="#010101"/>
        <path id="Path_1041" data-name="Path 1041" d="M485.671,179.6a.669.669,0,1,0,.667.671A.675.675,0,0,0,485.671,179.6Zm0,.849a.182.182,0,0,1-.182-.182.182.182,0,1,1,.364,0A.182.182,0,0,1,485.671,180.449Z" transform="translate(-478.575 -179.6)" fill="#010101"/>
      </g>
      <g id="Group_175" data-name="Group 175" transform="translate(11.291 28.328)">
        <rect id="Rectangle_2164" data-name="Rectangle 2164" width="0.489" height="3.684" fill="#010101"/>
        <path id="Path_1042" data-name="Path 1042" d="M344.8,773.911a.706.706,0,0,0-.3-.224,1.078,1.078,0,0,0-.443-.087.958.958,0,0,0-.849.44v-.379H342.8v2.668h.451V774.87a.891.891,0,0,1,.212-.694.719.719,0,0,1,.5-.182.574.574,0,0,1,.315.083.445.445,0,0,1,.186.216,1.172,1.172,0,0,1,.053.413v1.626h.455v-1.645a2.7,2.7,0,0,0-.027-.44A.906.906,0,0,0,344.8,773.911Z" transform="translate(-341.508 -772.645)" fill="#010101"/>
        <path id="Path_1043" data-name="Path 1043" d="M415.308,774.915a6.214,6.214,0,0,0-.667-.208c-.224-.061-.352-.1-.4-.114a.387.387,0,0,1-.174-.121.26.26,0,0,1-.053-.159.306.306,0,0,1,.129-.239.747.747,0,0,1,.447-.1.62.62,0,0,1,.409.118.485.485,0,0,1,.174.322l.443-.057a1.054,1.054,0,0,0-.155-.417.813.813,0,0,0-.352-.246,1.554,1.554,0,0,0-.553-.091,1.3,1.3,0,0,0-.39.057.888.888,0,0,0-.288.133.784.784,0,0,0-.224.25.7.7,0,0,0-.083.33.691.691,0,0,0,.1.356.712.712,0,0,0,.292.254,4.312,4.312,0,0,0,.686.22,2.158,2.158,0,0,1,.462.148.281.281,0,0,1,.136.243.381.381,0,0,1-.152.3.69.69,0,0,1-.459.125.736.736,0,0,1-.481-.14.638.638,0,0,1-.208-.409l-.447.068a1.016,1.016,0,0,0,.349.641,1.273,1.273,0,0,0,.792.212,1.4,1.4,0,0,0,.561-.106.84.84,0,0,0,.379-.311.758.758,0,0,0,.133-.424.705.705,0,0,0-.106-.39A.741.741,0,0,0,415.308,774.915Z" transform="translate(-409.528 -772.645)" fill="#010101"/>
        <path id="Path_1044" data-name="Path 1044" d="M480.635,753.9a.385.385,0,0,1-.152-.023.242.242,0,0,1-.08-.087.873.873,0,0,1-.023-.254v-1.554h.455v-.353h-.455V750.7l-.451.273v.659h-.33v.353h.33v1.531a1.57,1.57,0,0,0,.057.534.465.465,0,0,0,.19.2.815.815,0,0,0,.383.076,2.36,2.36,0,0,0,.341-.034l-.064-.4C480.748,753.9,480.684,753.9,480.635,753.9Z" transform="translate(-473.122 -750.613)" fill="#010101"/>
        <path id="Path_1045" data-name="Path 1045" d="M522.016,775.111v-.6a2.555,2.555,0,0,0-.023-.417.663.663,0,0,0-.14-.3.679.679,0,0,0-.315-.2,1.629,1.629,0,0,0-.557-.083,1.811,1.811,0,0,0-.6.095.863.863,0,0,0-.4.269,1.091,1.091,0,0,0-.2.455l.44.064a.712.712,0,0,1,.224-.4.859.859,0,0,1,.47-.11.8.8,0,0,1,.515.148.494.494,0,0,1,.129.39c0,.015,0,.057,0,.118a3.931,3.931,0,0,1-.8.155,2.953,2.953,0,0,0-.4.064,1.111,1.111,0,0,0-.326.148.822.822,0,0,0-.235.261.727.727,0,0,0-.091.36.707.707,0,0,0,.239.55.979.979,0,0,0,.675.212,1.365,1.365,0,0,0,.5-.091,1.535,1.535,0,0,0,.481-.3,1.007,1.007,0,0,0,.091.334h.474a1.012,1.012,0,0,1-.114-.326A5.368,5.368,0,0,1,522.016,775.111Zm-.459-.057a1.073,1.073,0,0,1-.072.451.671.671,0,0,1-.3.311.907.907,0,0,1-.466.117.6.6,0,0,1-.4-.121.387.387,0,0,1-.137-.3.375.375,0,0,1,.061-.212.4.4,0,0,1,.178-.148,1.545,1.545,0,0,1,.394-.087,3.317,3.317,0,0,0,.739-.174v.167Z" transform="translate(-511.703 -772.549)" fill="#010101"/>
        <path id="Path_1046" data-name="Path 1046" d="M602.385,750.125a.942.942,0,0,0,.387-.337.819.819,0,0,0,.129-.447.925.925,0,0,0-.144-.485.894.894,0,0,0-.4-.341,1.677,1.677,0,0,0-.675-.114H600.3v3.684h1.4a2.615,2.615,0,0,0,.6-.064,1.156,1.156,0,0,0,.4-.182.961.961,0,0,0,.273-.341,1.1,1.1,0,0,0,.106-.481.906.906,0,0,0-.178-.557A.933.933,0,0,0,602.385,750.125Zm-1.6-1.292h.735a2.079,2.079,0,0,1,.561.053.445.445,0,0,1,.25.193.571.571,0,0,1,.087.322.531.531,0,0,1-.095.322.55.55,0,0,1-.28.182,1.9,1.9,0,0,1-.466.042h-.8l0-1.114Zm1.717,2.49a.516.516,0,0,1-.186.2.787.787,0,0,1-.28.1,2.168,2.168,0,0,1-.334.019h-.917v-1.266h.853a1.923,1.923,0,0,1,.538.061.587.587,0,0,1,.3.212.63.63,0,0,1,.106.36A.705.705,0,0,1,602.5,751.322Z" transform="translate(-589.248 -748.4)" fill="#010101"/>
        <path id="Path_1047" data-name="Path 1047" d="M687.043,773.6a1.164,1.164,0,0,0-.895.371,1.458,1.458,0,0,0-.349,1.05,1.413,1.413,0,0,0,.341,1,1.2,1.2,0,0,0,.929.364,1.237,1.237,0,0,0,.762-.224,1.117,1.117,0,0,0,.409-.637l-.466-.057a.823.823,0,0,1-.28.413.668.668,0,0,1-.424.133.735.735,0,0,1-.557-.231,1.058,1.058,0,0,1-.25-.675h1.99v-.121a1.437,1.437,0,0,0-.337-1.023A1.112,1.112,0,0,0,687.043,773.6Zm-.75,1.137a.836.836,0,0,1,.235-.557.745.745,0,0,1,1.084.053.87.87,0,0,1,.171.5Z" transform="translate(-671.507 -772.645)" fill="#010101"/>
        <path id="Path_1048" data-name="Path 1048" d="M763.76,774.987a1.455,1.455,0,0,0-.337-1.023,1.147,1.147,0,0,0-.876-.364,1.177,1.177,0,0,0-.9.371,1.475,1.475,0,0,0-.349,1.05,1.4,1.4,0,0,0,.345,1,1.2,1.2,0,0,0,.932.364,1.252,1.252,0,0,0,.762-.224,1.116,1.116,0,0,0,.409-.637l-.466-.057a.82.82,0,0,1-.277.413.668.668,0,0,1-.424.133.749.749,0,0,1-.561-.231,1.058,1.058,0,0,1-.25-.675h1.99Zm-1.967-.25a.836.836,0,0,1,.235-.557.708.708,0,0,1,.523-.208.7.7,0,0,1,.557.262.871.871,0,0,1,.171.5Z" transform="translate(-744.146 -772.645)" fill="#010101"/>
      </g>
    </g>
    <g id="Group_177" data-name="Group 177" transform="translate(66.723 15.551)">
      <path id="Path_1049" data-name="Path 1049" d="M1248.8,397.639V384.9h2.475v12.739Z" transform="translate(-1248.8 -384.9)" fill="#fdcd2e"/>
      <path id="Path_1050" data-name="Path 1050" d="M1386.836,478.263h-2.4v-5.276a2.748,2.748,0,0,0-.394-1.649,1.3,1.3,0,0,0-1.1-.519,2.075,2.075,0,0,0-.735.144,2.655,2.655,0,0,0-.709.406,3.45,3.45,0,0,0-.6.618,2.487,2.487,0,0,0-.394.788v5.488h-2.4v-9.4h2.172v1.74a3.528,3.528,0,0,1,1.508-1.4,4.855,4.855,0,0,1,2.225-.5,2.829,2.829,0,0,1,1.436.322,2.321,2.321,0,0,1,.86.841,3.482,3.482,0,0,1,.421,1.183,7.59,7.59,0,0,1,.118,1.346v5.871Z" transform="translate(-1373.199 -465.524)" fill="#fdcd2e"/>
      <path id="Path_1051" data-name="Path 1051" d="M1649.753,477.864a7.319,7.319,0,0,1-2.316-.375,5.624,5.624,0,0,1-1.937-1.076l.9-1.508a7.676,7.676,0,0,0,1.679.925,4.515,4.515,0,0,0,1.622.315,2.057,2.057,0,0,0,1.13-.269.863.863,0,0,0,.413-.773.773.773,0,0,0-.485-.735,10.551,10.551,0,0,0-1.581-.538c-.61-.167-1.129-.33-1.562-.485a4.03,4.03,0,0,1-1.042-.531,1.8,1.8,0,0,1-.572-.682,2.153,2.153,0,0,1-.178-.925,2.925,2.925,0,0,1,.277-1.292,2.835,2.835,0,0,1,.781-.978,3.618,3.618,0,0,1,1.175-.618,4.756,4.756,0,0,1,1.463-.216,6.367,6.367,0,0,1,1.982.3,4.8,4.8,0,0,1,1.694.985l-.97,1.452a5.507,5.507,0,0,0-1.391-.788,3.813,3.813,0,0,0-1.338-.25,1.95,1.95,0,0,0-1.023.25.869.869,0,0,0-.413.807.8.8,0,0,0,.1.413.868.868,0,0,0,.315.288,3.3,3.3,0,0,0,.565.243c.235.08.523.159.872.243.644.167,1.2.334,1.66.5a4.607,4.607,0,0,1,1.13.572,2.047,2.047,0,0,1,.644.743,2.294,2.294,0,0,1,.2,1.012,2.612,2.612,0,0,1-1.023,2.179A4.3,4.3,0,0,1,1649.753,477.864Z" transform="translate(-1630.464 -464.947)" fill="#fdcd2e"/>
      <path id="Path_1052" data-name="Path 1052" d="M1886.937,404.369a10.645,10.645,0,0,1-1.182.432,4.968,4.968,0,0,1-1.471.216,3.463,3.463,0,0,1-.944-.125,2.1,2.1,0,0,1-.773-.406,2.012,2.012,0,0,1-.531-.716,2.576,2.576,0,0,1-.2-1.069v-5.4h-1.24v-1.85h1.24V392.4h2.4v3.051h1.975v1.85h-1.975v4.594a.853.853,0,0,0,.261.709,1,1,0,0,0,.637.2,2.221,2.221,0,0,0,.735-.125c.239-.083.432-.155.572-.216Z" transform="translate(-1856.654 -392.116)" fill="#fdcd2e"/>
      <path id="Path_1053" data-name="Path 1053" d="M2067.114,478.344a3.6,3.6,0,0,1-1.274-.224,3.057,3.057,0,0,1-1.023-.629,2.931,2.931,0,0,1-.675-.944,2.835,2.835,0,0,1-.242-1.183,2.6,2.6,0,0,1,.3-1.228,2.819,2.819,0,0,1,.826-.959,4.064,4.064,0,0,1,1.266-.618,5.559,5.559,0,0,1,1.615-.224,6.914,6.914,0,0,1,1.228.106,5.173,5.173,0,0,1,1.069.3v-.538a1.894,1.894,0,0,0-.531-1.436,2.205,2.205,0,0,0-1.569-.5,4.173,4.173,0,0,0-1.471.269,6.825,6.825,0,0,0-1.471.788l-.735-1.524a6.959,6.959,0,0,1,3.912-1.2,4.591,4.591,0,0,1,3.15,1,3.65,3.65,0,0,1,1.122,2.881V475.4a.836.836,0,0,0,.136.538.593.593,0,0,0,.44.178v2.047a5.352,5.352,0,0,1-1.057.125,1.62,1.62,0,0,1-1.05-.3,1.318,1.318,0,0,1-.458-.807l-.053-.519a4.143,4.143,0,0,1-1.524,1.255A4.479,4.479,0,0,1,2067.114,478.344Zm.678-1.759a3.117,3.117,0,0,0,1.156-.216,2.125,2.125,0,0,0,.853-.572.871.871,0,0,0,.394-.682v-1.076a6.39,6.39,0,0,0-.932-.262,5.136,5.136,0,0,0-.97-.1,2.568,2.568,0,0,0-1.524.421,1.266,1.266,0,0,0-.591,1.069,1.283,1.283,0,0,0,.466,1.012A1.683,1.683,0,0,0,2067.792,476.586Z" transform="translate(-2033.006 -465.427)" fill="#fdcd2e"/>
      <path id="Path_1054" data-name="Path 1054" d="M2369.064,394.353a2.977,2.977,0,0,1-.322,1.418,3.027,3.027,0,0,1-.887,1.023,4.128,4.128,0,0,1-1.312.629,5.682,5.682,0,0,1-1.588.216H2358.8V384.9h6.819a2.49,2.49,0,0,1,1.2.288,3.019,3.019,0,0,1,.914.743,3.379,3.379,0,0,1,.583,1.042,3.529,3.529,0,0,1,.2,1.175,3.485,3.485,0,0,1-.466,1.751,2.846,2.846,0,0,1-1.365,1.213,3.178,3.178,0,0,1,2.373,3.241Zm-7.789-7.338v3.21h3.3a1.476,1.476,0,0,0,1.069-.432,1.587,1.587,0,0,0,.439-1.183,1.66,1.66,0,0,0-.4-1.167,1.306,1.306,0,0,0-1-.432l-3.411,0Zm5.295,6.872a1.887,1.887,0,0,0-.432-1.2,1.506,1.506,0,0,0-.466-.368,1.278,1.278,0,0,0-.591-.133h-3.805v3.354h3.676a1.618,1.618,0,0,0,.637-.125,1.554,1.554,0,0,0,.512-.349,1.733,1.733,0,0,0,.47-1.179Z" transform="translate(-2316.729 -384.9)" fill="#fdcd2e"/>
      <path id="Path_1055" data-name="Path 1055" d="M2663.854,478.345a5.212,5.212,0,0,1-2.047-.387,4.62,4.62,0,0,1-2.558-2.592,4.924,4.924,0,0,1-.349-1.85,5.22,5.22,0,0,1,.341-1.891,4.693,4.693,0,0,1,.985-1.562,4.8,4.8,0,0,1,1.569-1.069,5.251,5.251,0,0,1,2.073-.394,5.117,5.117,0,0,1,2.054.394,4.751,4.751,0,0,1,1.542,1.057,4.566,4.566,0,0,1,.97,1.543,5.182,5.182,0,0,1,.333,1.831c0,.155,0,.3-.008.447a2.107,2.107,0,0,1-.045.36h-7.266a2.708,2.708,0,0,0,.269.985,2.451,2.451,0,0,0,.557.735,2.371,2.371,0,0,0,.773.466,2.581,2.581,0,0,0,.9.163,2.789,2.789,0,0,0,1.353-.349,1.864,1.864,0,0,0,.872-.925l2.062.572a4.209,4.209,0,0,1-1.66,1.766A5.127,5.127,0,0,1,2663.854,478.345Zm2.437-5.67a2.493,2.493,0,0,0-.781-1.694,2.451,2.451,0,0,0-3.328.008,2.5,2.5,0,0,0-.531.735,2.588,2.588,0,0,0-.243.951Z" transform="translate(-2605.455 -465.428)" fill="#fdcd2e"/>
      <path id="Path_1056" data-name="Path 1056" d="M2947.354,478.345a5.212,5.212,0,0,1-2.047-.387,4.62,4.62,0,0,1-2.558-2.592,4.919,4.919,0,0,1-.349-1.85,5.215,5.215,0,0,1,.341-1.891,4.689,4.689,0,0,1,.985-1.562,4.8,4.8,0,0,1,1.569-1.069,5.251,5.251,0,0,1,2.073-.394,5.117,5.117,0,0,1,2.054.394,4.751,4.751,0,0,1,1.542,1.057,4.569,4.569,0,0,1,.97,1.543,5.182,5.182,0,0,1,.333,1.831c0,.155,0,.3-.008.447a2.132,2.132,0,0,1-.045.36h-7.266a2.713,2.713,0,0,0,.269.985,2.451,2.451,0,0,0,.557.735,2.371,2.371,0,0,0,.773.466,2.581,2.581,0,0,0,.9.163,2.789,2.789,0,0,0,1.353-.349,1.863,1.863,0,0,0,.872-.925l2.062.572a4.211,4.211,0,0,1-1.66,1.766A5.107,5.107,0,0,1,2947.354,478.345Zm2.441-5.67a2.492,2.492,0,0,0-.781-1.694,2.452,2.452,0,0,0-3.328.008,2.512,2.512,0,0,0-.531.735,2.583,2.583,0,0,0-.242.951Z" transform="translate(-2878.209 -465.428)" fill="#fdcd2e"/>
    </g>
  </g>
</svg>
