<svg xmlns="http://www.w3.org/2000/svg" xmlns:xlink="http://www.w3.org/1999/xlink" width="100" height="100" viewBox="0 0 100 100">
  <defs>
    <clipPath id="clip-path">
      <rect id="_3" data-name="3" width="100" height="100" rx="50" transform="translate(601 808)" fill="#ffb846"/>
    </clipPath>
  </defs>
  <g id="Mask_Group_19" data-name="Mask Group 19" transform="translate(-601 -808)" clip-path="url(#clip-path)">
    <g id="paper-bag" transform="translate(613.997 824.238)">
      <circle id="Ellipse_119" data-name="Ellipse 119" cx="9.237" cy="9.237" r="9.237" transform="translate(15.449 5.9)" fill="#f7c244"/>
      <circle id="Ellipse_120" data-name="Ellipse 120" cx="9.237" cy="9.237" r="9.237" transform="translate(40.082 5.9)" fill="#f7c244"/>
      <circle id="Ellipse_121" data-name="Ellipse 121" cx="9.237" cy="9.237" r="9.237" transform="translate(27.766 5.9)" fill="#f3a33a"/>
      <path id="Path_2226" data-name="Path 2226" d="M62.23,22.688V71.953H12.964V22.688l4.105,4.105,4.105-4.105,4.105,4.105,4.105-4.105,4.105,4.105L37.6,22.688,41.7,26.793l4.105-4.105,4.105,4.105,4.105-4.105,4.105,4.105Z" transform="translate(-0.594 -7.551)" fill="#594139"/>
      <path id="Path_2227" data-name="Path 2227" d="M79.516,26.793,75.41,22.688,71.3,26.793v45.16H83.621V22.688Z" transform="translate(-21.986 -7.551)" fill="#74574a"/>
      <path id="Path_2228" data-name="Path 2228" d="M62.028,14.189a1.026,1.026,0,0,0-1.119.223l-1.363,1.363c.012-.212.036-.423.036-.637A10.273,10.273,0,0,0,51.016,5.026,5.993,5.993,0,0,1,52.1,3.547L50.646,2.1a7.978,7.978,0,0,0-1.816,2.8A10.23,10.23,0,0,0,43.15,6.938,10.209,10.209,0,0,0,38.7,5.026a5.993,5.993,0,0,1,1.082-1.479L38.33,2.1a8.005,8.005,0,0,0-1.817,2.8,10.2,10.2,0,0,0-5.657,2.039,10.226,10.226,0,0,0-4.471-1.916,5.99,5.99,0,0,1,1.08-1.475L26.014,2.1A8.006,8.006,0,0,0,24.2,4.9a10.264,10.264,0,0,0-9.774,10.239c0,.215.024.425.036.637L13.1,14.412a1.026,1.026,0,0,0-1.752.726V64.4a1.026,1.026,0,0,0,1.026,1.026H61.635A1.026,1.026,0,0,0,62.662,64.4V15.137A1.026,1.026,0,0,0,62.028,14.189ZM50.345,8.979v-1.2a5.986,5.986,0,0,1,.055-.77,8.167,8.167,0,0,1,6.786,10.442L54.15,14.412a1.026,1.026,0,0,0-1.451,0l-3.38,3.38-2.085-2.085c.01-.19.032-.378.032-.57a10.208,10.208,0,0,0-2.572-6.772,8.175,8.175,0,0,1,3.636-1.372c-.025.259-.038.52-.038.783v1.2Zm-12.316,0v-1.2a5.985,5.985,0,0,1,.055-.77,8.217,8.217,0,0,1,7.06,7.118,1.012,1.012,0,0,0-.657.287l-3.38,3.38-3.38-3.38a1.026,1.026,0,0,0-1.451,0l-3.38,3.38-3.38-3.38a1.012,1.012,0,0,0-.657-.287,8.219,8.219,0,0,1,7.154-7.132c-.025.259-.038.52-.038.784v1.2ZM23.7,6.992c-.025.259-.038.52-.038.784v1.2h2.053v-1.2a5.986,5.986,0,0,1,.055-.77,8.164,8.164,0,0,1,3.544,1.357,10.209,10.209,0,0,0-2.573,6.774c0,.192.022.38.032.57l-2.085,2.085-3.38-3.38a1.026,1.026,0,0,0-1.451,0l-3.037,3.037A8.17,8.17,0,0,1,23.7,6.992ZM13.4,17.615l2.353,2.353a1.026,1.026,0,0,0,1.451,0l3.38-3.38,3.38,3.38a1.026,1.026,0,0,0,1.451,0l3.38-3.38,3.38,3.38a1.026,1.026,0,0,0,1.451,0L37,16.589l3.38,3.38a1.026,1.026,0,0,0,1.451,0l3.38-3.38,3.079,3.079V63.376H13.4ZM60.609,63.376H50.345V19.668l3.079-3.079,3.38,3.38a1.026,1.026,0,0,0,1.451,0l2.353-2.353Z"/>
      <path id="Path_2229" data-name="Path 2229" d="M30.629,17.664a3.079,3.079,0,0,0,3.079-3.079H31.655a1.026,1.026,0,1,1-2.053,0H27.55A3.079,3.079,0,0,0,30.629,17.664Z" transform="translate(-5.942 -4.58)"/>
      <path id="Path_2230" data-name="Path 2230" d="M47,14.585a3.079,3.079,0,0,0,6.158,0H51.1a1.026,1.026,0,0,1-2.053,0Z" transform="translate(-13.073 -4.58)"/>
      <path id="Path_2231" data-name="Path 2231" d="M66.443,14.585a3.079,3.079,0,1,0,6.158,0H70.548a1.026,1.026,0,1,1-2.053,0Z" transform="translate(-20.203 -4.58)"/>
      <path id="Path_2232" data-name="Path 2232" d="M19.879,68.064H17.826V84.485a1.026,1.026,0,0,0,1.026,1.026H31.169V83.459H19.879Z" transform="translate(-2.377 -24.188)"/>
      <path id="Path_2233" data-name="Path 2233" d="M17.826,58.34h2.053v4.105H17.826Z" transform="translate(-2.377 -20.623)"/>
    </g>
  </g>
</svg>
