<svg xmlns="http://www.w3.org/2000/svg" xmlns:xlink="http://www.w3.org/1999/xlink" width="100" height="100" viewBox="0 0 100 100">
  <defs>
    <clipPath id="clip-path">
      <rect id="_4" data-name="4" width="100" height="100" rx="50" transform="translate(831 655)" fill="#ffb846"/>
    </clipPath>
  </defs>
  <g id="Mask_Group_20" data-name="Mask Group 20" transform="translate(-831 -655)" clip-path="url(#clip-path)">
    <g id="smartphone" transform="translate(843.003 675.137)">
      <g id="icon_58_" transform="translate(20.198 0)">
        <path id="Path_2234" data-name="Path 2234" d="M22.279,0H53.716A2.082,2.082,0,0,1,55.8,2.082V57.645a2.082,2.082,0,0,1-2.082,2.082H22.279A2.082,2.082,0,0,1,20.2,57.645V2.082A2.082,2.082,0,0,1,22.279,0Z" transform="translate(-20.198 -4)" fill="#a2b1b7" stroke="#000" stroke-width="1"/>
        <path id="Path_2235" data-name="Path 2235" d="M23.916,9.3H55.074V55H23.916Z" transform="translate(-21.695 -5.743)" fill="#57676e"/>
        <g id="Group_306" data-name="Group 306" transform="translate(14.468 0.013)">
          <circle id="Ellipse_122" data-name="Ellipse 122" cx="2.129" cy="2.129" r="2.129" transform="matrix(0.924, -0.383, 0.383, 0.924, 0.572, 50.78)" fill="#fff296"/>
          <path id="Path_2236" data-name="Path 2236" d="M50.321,3.718H45.186a.765.765,0,1,0,0,1.53h5.135a.765.765,0,0,0,0-1.53Z" transform="translate(-44.421 -3.718)" fill="#fff296"/>
        </g>
      </g>
    </g>
  </g>
</svg>
