<svg xmlns="http://www.w3.org/2000/svg" xmlns:xlink="http://www.w3.org/1999/xlink" width="102" height="102" viewBox="0 0 102 102">
  <defs>
    <clipPath id="clip-path">
      <rect id="_1" data-name="1" width="102" height="102" rx="51" transform="translate(120.4 746.4)" fill="#ffb846"/>
    </clipPath>
  </defs>
  <g id="Mask_Group_17" data-name="Mask Group 17" transform="translate(-120.4 -746.4)" clip-path="url(#clip-path)">
    <g id="male-clothes" transform="translate(136 762)">
      <path id="Path_2203" data-name="Path 2203" d="M41.381,9.677,50.034,14a9.136,9.136,0,0,1,5.05,8.171V38.226H45.949V61.065H13.974V38.226H4.839V22.175A9.136,9.136,0,0,1,9.889,14l8.653-4.327Z" transform="translate(-1.413 -2.826)" fill="#c3c6c7"/>
      <path id="Path_2204" data-name="Path 2204" d="M0,0H9.136V4.568H0Z" transform="translate(53.671 35.4) rotate(180)" fill="#9aa3a8"/>
      <path id="Path_2205" data-name="Path 2205" d="M64.045,40.923A1.142,1.142,0,0,1,62.9,39.781V31.787a1.142,1.142,0,1,1,2.284,0v7.994A1.142,1.142,0,0,1,64.045,40.923Z" transform="translate(-18.368 -8.948)" fill="#b6b9ba"/>
      <path id="Path_2206" data-name="Path 2206" d="M43.677,4.839v5.71L37.968,17.4l-5.71-6.852V4.839Z" transform="translate(-9.419 -1.413)" fill="#c3c6c7"/>
      <path id="Path_2207" data-name="Path 2207" d="M54.026,12.832H49.458V17.4l-9.136,4.568V17.4l5.71-6.852V4.839L50.6,5.981Z" transform="translate(-11.774 -1.413)" fill="#9aa3a8"/>
      <path id="Path_2208" data-name="Path 2208" d="M34.671,17.4v4.568L25.536,17.4V12.832H20.968l3.426-6.852,4.568-1.142v5.71Z" transform="translate(-6.123 -1.413)" fill="#9aa3a8"/>
      <path id="Path_2209" data-name="Path 2209" d="M17.742,38.71h9.136V50.129H17.742Z" transform="translate(-5.181 -11.303)" fill="#b6b9ba"/>
      <path id="Path_2210" data-name="Path 2210" d="M17.742,38.71h9.136v4.568H17.742Z" transform="translate(-5.181 -11.303)" fill="#9aa3a8"/>
      <path id="Path_2211" data-name="Path 2211" d="M58.065,29.032H85.471v6.852H58.065Z" transform="translate(-16.955 -8.477)" fill="#966651"/>
      <path id="Path_2212" data-name="Path 2212" d="M86.142,43.277V80.961H74.723l-.548-4.568L71.3,52.413,68.419,76.394l-.548,4.568H56.452V43.277l1.142-4.568H85Z" transform="translate(-16.484 -11.303)" fill="#b37a60"/>
      <path id="Path_2213" data-name="Path 2213" d="M68.419,91.935,67.871,96.5H56.452V91.935Z" transform="translate(-16.484 -26.845)" fill="#966651"/>
      <path id="Path_2214" data-name="Path 2214" d="M93.451,91.935V96.5H82.032l-.548-4.568Z" transform="translate(-23.793 -26.845)" fill="#966651"/>
      <path id="Path_2215" data-name="Path 2215" d="M32.258,4.839H43.677V9.406H32.258Z" transform="translate(-9.419 -1.413)" fill="#b6b9ba"/>
      <path id="Path_2216" data-name="Path 2216" d="M4.839,43.548h9.136v4.568H4.839Z" transform="translate(-1.413 -12.716)" fill="#9aa3a8"/>
      <path id="Path_2217" data-name="Path 2217"/>
      <path id="Path_2218" data-name="Path 2218" d="M70.6,28.208V21.5a1.142,1.142,0,0,0-1.142-1.142h-13.7v-.064A10.222,10.222,0,0,0,50.074,11.1L41.761,6.942,40.789,5a1.142,1.142,0,0,0-.744-.6L35.477,3.26a1.135,1.135,0,0,0-.277-.033H23.781a1.135,1.135,0,0,0-.277.033L18.936,4.4a1.142,1.142,0,0,0-.744.6L17.22,6.942,8.907,11.1a10.222,10.222,0,0,0-5.681,9.193V36.342a1.142,1.142,0,0,0,1.142,1.142h7.994v21.7A1.142,1.142,0,0,0,13.5,60.323H39.768V70.6a1.142,1.142,0,0,0,1.142,1.142H52.329a1.142,1.142,0,0,0,1.134-1.006l2.292-19.1,2.292,19.1a1.142,1.142,0,0,0,1.134,1.006H70.6A1.142,1.142,0,0,0,71.742,70.6V32.916a1.139,1.139,0,0,0-.034-.277Zm-27.407-1V22.639h2.284v4.568Zm4.568-4.568h2.284v4.568H47.761Zm4.568,0h2.284v4.568H52.329Zm4.568,0h2.284v4.568H56.9Zm4.568,0h2.284v4.568H61.465Zm4.568,0h2.284v4.568H66.032ZM36.077,10.808a1.142,1.142,0,0,0,.265-.731V5.83l2.639.66,2.365,4.729h-2.72a1.142,1.142,0,0,0-1.142,1.142v3.862l-6.852,3.426V17.343ZM34.058,7.794H24.923V5.51h9.136Zm-.345,2.284L29.49,15.145l-4.223-5.067ZM20,6.49l2.639-.66v4.247a1.142,1.142,0,0,0,.265.731l5.445,6.535V19.65L21.5,16.224V12.361a1.142,1.142,0,0,0-1.142-1.142h-2.72ZM5.51,35.2V32.916h6.852V35.2Zm9.136-5.71H21.5v2.284H14.645Zm0,6.852V34.058H21.5v4.568H14.645Zm0,4.568h7.994a1.142,1.142,0,0,0,1.142-1.142V28.348a1.142,1.142,0,0,0-1.142-1.142H14.645V23.781a1.142,1.142,0,1,0-2.284,0v6.852H5.51V20.291a7.951,7.951,0,0,1,4.419-7.15l5.589-2.795-.752,1.5A1.142,1.142,0,0,0,15.787,13.5h3.426v3.426a1.142,1.142,0,0,0,.631,1.021l8.5,4.252V58.039h-13.7ZM30.632,58.039V22.2l8.5-4.252a1.142,1.142,0,0,0,.631-1.021V13.5h3.426a1.142,1.142,0,0,0,1.021-1.653l-.752-1.5,5.589,2.795a7.951,7.951,0,0,1,4.419,7.15v.064H42.052A1.142,1.142,0,0,0,40.91,21.5v6.711L39.8,32.639a1.139,1.139,0,0,0-.034.277V58.039ZM42.052,69.458V67.174H51.59l-.274,2.284ZM56.889,41.916a1.142,1.142,0,0,0-2.268,0L51.864,64.891H42.052V33.057l.892-3.566H68.567l.892,3.566V64.891H59.646Zm3.305,27.543-.274-2.284h9.538v2.284Z" transform="translate(-0.942 -0.942)"/>
    </g>
  </g>
</svg>
