<svg xmlns="http://www.w3.org/2000/svg" width="60.8" height="60.801" viewBox="0 0 60.8 60.801">
  <g id="furniture" transform="translate(-0.001)">
    <g id="Group_230" data-name="Group 230" transform="translate(1.048 40.906)">
      <path id="Path_2082" data-name="Path 2082" d="M72,376H92.943v8.377H72Z" transform="translate(-63.624 -369.72)" fill="#a97c50"/>
      <path id="Path_2083" data-name="Path 2083" d="M16.378,328H8v14.659h8.377V328Z" transform="translate(-8.001 -328.003)" fill="#a97c50"/>
      <path id="Path_2084" data-name="Path 2084" d="M232,328v14.659h8.377V328H232Z" transform="translate(-202.682 -328.003)" fill="#a97c50"/>
    </g>
    <g id="Group_231" data-name="Group 231" transform="translate(3.142 26.246)">
      <path id="Path_2085" data-name="Path 2085" d="M44.189,236.945H65.131v-6.283H69.32V220.191A4.188,4.188,0,0,0,65.131,216H44.189A4.188,4.188,0,0,0,40,220.191v10.471h4.188Z" transform="translate(-37.907 -216.003)" fill="#8b5e3c"/>
      <path id="Path_2086" data-name="Path 2086" d="M24,440h4.188v4.188H24Z" transform="translate(-24.001 -410.684)" fill="#8b5e3c"/>
      <path id="Path_2087" data-name="Path 2087" d="M248,440h4.188v4.188H248Z" transform="translate(-218.682 -410.684)" fill="#8b5e3c"/>
    </g>
    <path id="Path_2088" data-name="Path 2088" d="M333.237,8,328,24.757h18.848L341.613,8h-8.377Z" transform="translate(-287.095 -6.956)" fill="#dcf4ca"/>
    <path id="Path_2089" data-name="Path 2089" d="M336,440h16.754v4.188H336Z" transform="translate(-294.048 -384.438)" fill="#b39a7c"/>
    <path id="Path_2090" data-name="Path 2090" d="M75.226,40H48V56.757H75.226ZM72.084,53.615H51.142V43.144H72.084Z" transform="translate(-41.717 -34.767)" fill="#c49a6c"/>
    <path id="Path_2091" data-name="Path 2091" d="M72,64H92.943V74.474H72Z" transform="translate(-62.81 -55.626)" fill="#ddfffb"/>
    <g id="Group_232" data-name="Group 232" transform="translate(0.001 0)">
      <path id="Path_2092" data-name="Path 2092" d="M38.744,222.662H35.6v-9.424A5.242,5.242,0,0,0,30.367,208H9.425a5.242,5.242,0,0,0-5.236,5.236v9.424H1.048A1.047,1.047,0,0,0,0,223.71v14.659a1.047,1.047,0,0,0,1.047,1.047H2.1v3.141A1.047,1.047,0,0,0,3.142,243.6H7.331a1.047,1.047,0,0,0,1.047-1.047v-3.141H31.414v3.141a1.047,1.047,0,0,0,1.047,1.047H36.65a1.047,1.047,0,0,0,1.047-1.047v-3.141h1.047a1.047,1.047,0,0,0,1.047-1.047V223.71A1.047,1.047,0,0,0,38.744,222.662Zm-32.46-9.424A3.141,3.141,0,0,1,9.425,210.1H30.367a3.141,3.141,0,0,1,3.141,3.141v9.424H30.367a1.047,1.047,0,0,0-1.047,1.047v5.236H10.472V223.71a1.047,1.047,0,0,0-1.047-1.047H6.284v-9.424ZM2.1,224.757H8.378v12.565H2.1ZM6.284,241.51H4.189v-2.094H6.284Zm4.188-10.471H29.32v6.283H10.472ZM35.6,241.51H33.508v-2.094H35.6Zm2.094-4.188H31.414V224.757H37.7Z" transform="translate(-0.001 -182.804)" fill="#231f20"/>
      <path id="Path_2093" data-name="Path 2093" d="M340.893,16.926,335.657.712a1.044,1.044,0,0,0-1-.709h-8.377a1.044,1.044,0,0,0-1,.709l-5.236,16.213a1.008,1.008,0,0,0,.685,1.271,1.076,1.076,0,0,0,.314.047h8.377v36.48h-7.33a1.031,1.031,0,0,0-1.047,1.013V59.79a1.031,1.031,0,0,0,1.047,1.013h16.754a1.031,1.031,0,0,0,1.047-1.013V55.736a1.031,1.031,0,0,0-1.047-1.013h-7.33V18.243h8.377a1.031,1.031,0,0,0,1.047-1.013A.976.976,0,0,0,340.893,16.926ZM337.8,56.75v2.027H323.14V56.75ZM322.47,16.216,327.051,2.03h6.838l4.581,14.187Z" transform="translate(-280.141 -0.003)" fill="#231f20"/>
      <path id="Path_2094" data-name="Path 2094" d="M69.32,4.189H60.265L55.315.23a1.047,1.047,0,0,0-1.309,0l-4.95,3.959H40V23.037H69.32ZM54.66,2.388l2.25,1.8h-4.5ZM67.226,20.942H42.1V6.283h25.13Z" transform="translate(-34.765 0)" fill="#231f20"/>
      <path id="Path_2095" data-name="Path 2095" d="M64,68.568H87.037V56H64ZM66.1,58.1H84.943v8.377H66.1Z" transform="translate(-55.624 -48.673)" fill="#231f20"/>
    </g>
  </g>
</svg>
