<svg xmlns="http://www.w3.org/2000/svg" width="60.081" height="66.397" viewBox="0 0 60.081 66.397">
  <g id="game-pad" transform="translate(-26.889 -23)">
    <path id="Path_2096" data-name="Path 2096" d="M61.333,48.093H60.021V42.265a3.869,3.869,0,0,1,3.894-3.885H74.438a4.42,4.42,0,0,0,0-8.839H49.676a3.125,3.125,0,0,1-3.116-3.116V23h1.319v3.424a1.8,1.8,0,0,0,1.8,1.8H74.389a5.739,5.739,0,1,1,0,11.47H63.915a2.55,2.55,0,0,0-2.55,2.55Z" transform="translate(-3.748 0)" fill="#64798a"/>
    <path id="Path_2097" data-name="Path 2097" d="M86.313,60.248a12.717,12.717,0,0,0-12.83-10.693,73.553,73.553,0,0,1-32.67,0A12.725,12.725,0,0,0,27.546,60.248c-1.117,6.937-1.918,32.646,7.39,34.143,4.047.639,7.981-4.606,11.154-11.017a12.207,12.207,0,0,1,10.215-6.9h.178A12.215,12.215,0,0,1,67.816,83.4c3.173,6.411,7.131,11.64,11.146,11,9.268-1.506,8.467-27.214,7.35-34.151Z" transform="translate(0 -5.056)" fill="#3a556a"/>
    <g id="Group_233" data-name="Group 233" transform="translate(32.451 52.084)">
      <circle id="Ellipse_113" data-name="Ellipse 113" cx="1.951" cy="1.951" r="1.951" transform="translate(34.985 7.034)" fill="#64798a"/>
      <circle id="Ellipse_114" data-name="Ellipse 114" cx="1.951" cy="1.951" r="1.951" transform="translate(42.424 7.034)" fill="#64798a"/>
      <circle id="Ellipse_115" data-name="Ellipse 115" cx="1.951" cy="1.951" r="1.951" transform="translate(38.709 3.319)" fill="#64798a"/>
      <circle id="Ellipse_116" data-name="Ellipse 116" cx="1.951" cy="1.951" r="1.951" transform="translate(38.709 10.758)" fill="#64798a"/>
      <path id="Path_2098" data-name="Path 2098" d="M44.137,68.014h-2.9V65.067a1.5,1.5,0,0,0-3,0v2.946H35.257a1.5,1.5,0,1,0,0,3H38.2v2.946a1.5,1.5,0,1,0,3,0V71.009h2.938a1.5,1.5,0,1,0,0-3Z" transform="translate(-33.76 -59.814)" fill="#64798a"/>
      <path id="Path_2099" data-name="Path 2099" d="M58.445,58.93a1.238,1.238,0,1,0,.879.366A1.247,1.247,0,0,0,58.445,58.93Z" transform="translate(-38.224 -58.93)" fill="#64798a"/>
      <path id="Path_2100" data-name="Path 2100" d="M63.7,58.93a1.238,1.238,0,1,0,.879.366A1.247,1.247,0,0,0,63.7,58.93Z" transform="translate(-39.226 -58.93)" fill="#64798a"/>
      <path id="Path_2101" data-name="Path 2101" d="M68.965,58.93a1.238,1.238,0,1,0,.879.366,1.247,1.247,0,0,0-.879-.366Z" transform="translate(-40.229 -58.93)" fill="#64798a"/>
    </g>
  </g>
</svg>
