<svg xmlns="http://www.w3.org/2000/svg" width="60.6" height="80.93" viewBox="0 0 60.6 80.93">
  <g id="groceries" transform="translate(-64.31)">
    <path id="Path_2146" data-name="Path 2146" d="M274.433,46.649a1.965,1.965,0,0,0,2.527,0,3.97,3.97,0,0,1,3.48-.807,11.186,11.186,0,0,1,3.957,1.838V34H272.506a.886.886,0,0,0-.886.886V45.736A4.03,4.03,0,0,1,274.433,46.649Z" transform="translate(-174.541 -28.627)" fill="#9dc6fb"/>
    <path id="Path_2147" data-name="Path 2147" d="M353.465,55.345l4.427,1.175a.982.982,0,0,0,.832,0l1.737-.812V34.887a.886.886,0,0,0-.886-.886h-7.124V47.772a47.835,47.835,0,0,1,1.014,7.574Z" transform="translate(-242.596 -28.627)" fill="#80b4fb"/>
    <path id="Path_2148" data-name="Path 2148" d="M111.426,26.626a.982.982,0,0,0,.832,0l6.132-2.868a.982.982,0,0,1,.832,0l6.133,2.868a.983.983,0,0,0,.612.073c-.222-7.054-1.455-26.7-8.328-26.7-6.558,0-7.981,17.889-8.29,25.655Z" transform="translate(-37.92 0)" fill="#f1cb86"/>
    <path id="Path_2149" data-name="Path 2149" d="M117.639,0a3.554,3.554,0,0,0-1.986.614c2,4.132,2.964,10.821,3.424,16.286a6.01,6.01,0,0,1-6.025,6.508l-3.594-.019c-.047.821-.083,1.583-.11,2.266l7.169,4.793s9.244-3.708,9.449-3.75c-.221-7.054-1.455-26.7-8.328-26.7Z" transform="translate(-37.92)" fill="#ecbe6b"/>
    <path id="Path_2150" data-name="Path 2150" d="M228.076,112.855l12.611-4.31a10.874,10.874,0,0,0-8.354-10.55,3.97,3.97,0,0,0-3.48.807,1.965,1.965,0,0,1-2.527,0,3.97,3.97,0,0,0-3.48-.807c-4.932,1.224-8.367,5.381-8.365,11.111C214.557,109.09,228,112.888,228.076,112.855Z" transform="translate(-126.435 -82.407)" fill="#e28086"/>
    <path id="Path_2151" data-name="Path 2151" d="M321.593,97.994a3.884,3.884,0,0,0-1.093-.113,11.614,11.614,0,0,1,2.932,8.562s.975,3.888,1.107,3.95l5.408-1.848A10.874,10.874,0,0,0,321.593,97.994Z" transform="translate(-215.695 -82.407)" fill="#dd636e"/>
    <path id="Path_2152" data-name="Path 2152" d="M138.122,72.725a1.217,1.217,0,0,1-.579-.147l-7.249-3.914a1.221,1.221,0,1,1,1.161-2.149l7.249,3.914a1.221,1.221,0,0,1-.581,2.3Zm.351-6.545a1.221,1.221,0,0,0-.494-1.655l-5.655-3.053a1.221,1.221,0,0,0-1.161,2.149l5.655,3.053a1.221,1.221,0,0,0,1.655-.495Zm-2.235,9.741a1.221,1.221,0,0,0-.494-1.655l-4.826-2.606a1.221,1.221,0,1,0-1.161,2.149l4.826,2.606a1.221,1.221,0,0,0,1.655-.494Z" transform="translate(-54.563 -51.632)" fill="#f6e7c6"/>
    <g id="Group_238" data-name="Group 238" transform="translate(76.967 11.338)">
      <path id="Path_2153" data-name="Path 2153" d="M149.094,139.712a1.221,1.221,0,0,0-.494-1.655l-1.785-.964a6.011,6.011,0,0,1-2.429,1.464l3.054,1.649a1.221,1.221,0,0,0,1.655-.494Z" transform="translate(-144.385 -126.761)" fill="#f4d8a5"/>
      <path id="Path_2154" data-name="Path 2154" d="M169.259,75.581a1.221,1.221,0,0,0,.581-2.3l-2.88-1.555c.143,1,.267,2,.374,2.978l1.346.727A1.217,1.217,0,0,0,169.259,75.581Z" transform="translate(-163.392 -71.73)" fill="#f4d8a5"/>
      <path id="Path_2155" data-name="Path 2155" d="M171.516,110.394l-2.965-1.6a5.956,5.956,0,0,1-.462,2.527l2.266,1.223a1.221,1.221,0,1,0,1.16-2.149Z" transform="translate(-164.343 -102.935)" fill="#f4d8a5"/>
    </g>
    <path id="Path_2156" data-name="Path 2156" d="M290.892,64.013h-.026a1.221,1.221,0,0,1-1.2-1.246,11.382,11.382,0,0,1,3.347-7.847,1.221,1.221,0,0,1,1.727,1.727,8.949,8.949,0,0,0-2.633,6.17A1.221,1.221,0,0,1,290.892,64.013Z" transform="translate(-189.738 -45.938)" fill="#e2f4b4"/>
    <path id="Path_2157" data-name="Path 2157" d="M108.747,195.955V149.722a.981.981,0,0,0-.416.092l-6.134,2.868a.982.982,0,0,1-.832,0l-6.133-2.868a.983.983,0,0,0-.832,0l-6.133,2.868a.982.982,0,0,1-.832,0L81.3,149.815a.983.983,0,0,0-.832,0l-6.132,2.868a.983.983,0,0,1-.832,0l-5.835-2.729a.5.5,0,0,0-.713.454v45.547a4.535,4.535,0,0,1-.194,1.313l-2.392,7.907a1.4,1.4,0,0,0,1.344,1.811h46.166l-2.94-9.718a4.535,4.535,0,0,1-.194-1.313Z" transform="translate(0 -126.056)" fill="#e2bcaf"/>
    <g id="Group_239" data-name="Group 239" transform="translate(69.807 23.666)">
      <path id="Path_2158" data-name="Path 2158" d="M361.54,205.175l-2.392-7.908a4.535,4.535,0,0,1-.194-1.313V150.6a.5.5,0,0,0-.713-.454l-5.42,2.534a.982.982,0,0,1-.832,0l-6.134-2.868a.981.981,0,0,0-.416-.092v46.233a4.535,4.535,0,0,0,.194,1.313l2.94,9.718H360.2A1.4,1.4,0,0,0,361.54,205.175Z" transform="translate(-306.498 -149.722)" fill="#d8a595"/>
      <path id="Path_2159" data-name="Path 2159" d="M114.524,436.926H100.308a1.221,1.221,0,0,1,0-2.443h14.215a1.221,1.221,0,0,1,0,2.443Z" transform="translate(-99.087 -389.472)" fill="#d8a595"/>
    </g>
  </g>
</svg>
