<svg xmlns="http://www.w3.org/2000/svg" width="60.399" height="60.399" viewBox="0 0 60.399 60.399">
  <g id="makeup" transform="translate(0)">
    <path id="Path_2160" data-name="Path 2160" d="M301.014,20.6a33.188,33.188,0,0,0-4.429-7.983,30.031,30.031,0,0,0-2.227-2.778c-.8-.851-1.652-1.7-2.5-2.5a30.029,30.029,0,0,0-2.778-2.227A33.186,33.186,0,0,0,281.095.676L279.368,0l-5.806,20.62v5l7.507,2.5,20.62-5.806Z" transform="translate(-241.29)" fill="#ff7cb9"/>
    <path id="Path_2161" data-name="Path 2161" d="M1.553,298.827a5.314,5.314,0,0,1,0-7.507L19.76,273.113a3.539,3.539,0,0,1,5,0l2.5,2.5a3.539,3.539,0,0,1,0,5L9.06,298.827A5.314,5.314,0,0,1,1.553,298.827Z" transform="translate(0 -239.98)" fill="#5a5a5a"/>
    <path id="Path_2162" data-name="Path 2162" d="M175,194.818,167.5,187.31,180.008,174.8l7.507,7.507Z" transform="translate(-147.737 -154.178)" fill="#fed2a4"/>
    <path id="Path_2163" data-name="Path 2163" d="M305.94,76.791a30.047,30.047,0,0,0-2.227-2.778c-.4-.425-.832-.832-1.251-1.251L284.169,91.055l6.256,1.251,20.62-5.806-.676-1.727A33.191,33.191,0,0,0,305.94,76.791Z" transform="translate(-250.646 -64.178)" fill="#ff5e95"/>
    <path id="Path_2164" data-name="Path 2164" d="M390.138,86.147l-8.008,8.008-2.5-2.5,8.283-8.283A30.022,30.022,0,0,1,390.138,86.147Z" transform="translate(-334.844 -73.534)" fill="#ff3980"/>
    <path id="Path_2165" data-name="Path 2165" d="M347.988,45.5,339.7,53.786l-2.5-2.5,8.008-8.008A30.017,30.017,0,0,1,347.988,45.5Z" transform="translate(-297.423 -38.171)" fill="#ff5e95"/>
    <path id="Path_2166" data-name="Path 2166" d="M13.16,315.933a5.314,5.314,0,0,0,7.507,0l18.207-18.207a3.539,3.539,0,0,0,0-5l-1.251-1.251Z" transform="translate(-11.607 -257.086)" fill="#444"/>
    <rect id="Rectangle_2234" data-name="Rectangle 2234" width="5.309" height="17.695" transform="translate(36.026 24.374) rotate(45)" fill="#f6a96c"/>
  </g>
</svg>
