<svg xmlns="http://www.w3.org/2000/svg" width="60.735" height="61" viewBox="0 0 60.735 61">
  <g id="mechanic-tools" transform="translate(-1.13 -0.041)">
    <path id="Path_2102" data-name="Path 2102" d="M64.888,150.707,26.383,189.214a3.868,3.868,0,0,1-5.47,0l-1.082-1.081,25.14-27.459,16.1-13.782Z" transform="translate(-16.466 -129.305)" fill="#ffd321"/>
    <path id="Path_2103" data-name="Path 2103" d="M44.751,118.748,3.509,159.99l-1.084-1.084a3.873,3.873,0,0,1,0-5.47L40.933,114.93Z" transform="translate(-0.145 -101.163)" fill="#ffea98"/>
    <path id="Path_2104" data-name="Path 2104" d="M126.772,51.771l-3.721,3.721-8.919-8.919-2.573,2.573L96,35.594,81.371,18.96,83.9,16.432,74.98,7.511,78.7,3.79l7.406,2.117,8.286,8.184-1.7,8.51,15.224,15.224,8.5-1.7,8.234,8.234Z" transform="translate(-65.027 -3.301)" fill="#b8b8bd"/>
    <path id="Path_2105" data-name="Path 2105" d="M52.922,125.629,49.2,129.351l-7.413-2.117L33.554,119l1.7-8.5L20.03,95.273l-8.5,1.7L3.249,88.789,1.13,81.371,4.851,77.65l8.919,8.919L16.344,84,46.53,114.182,44,116.71Z" transform="translate(0 -68.337)" fill="#d1d1d6"/>
    <path id="Path_2106" data-name="Path 2106" d="M366.617,93.733l-7.636,7.636L347.23,89.617l3.485-6.752,6.7-3.435,3.625,3.625v5.1Z" transform="translate(-304.752 -69.904)" fill="#2d2d2d"/>
    <path id="Path_2107" data-name="Path 2107" d="M0,0H14.407V13.42H0Z" transform="translate(32.984 10.227) rotate(-45)" fill="#4b5055"/>
  </g>
</svg>
