<svg xmlns="http://www.w3.org/2000/svg" width="60.598" height="67.448" viewBox="0 0 60.598 67.448">
  <g id="shirt" transform="translate(-25.999 0)">
    <g id="Group_236" data-name="Group 236" transform="translate(27.316 1.318)">
      <path id="Path_2133" data-name="Path 2133" d="M169.946,13.927l-.3,12.319,7.9-2.3L173.756,10,170,11.762Z" transform="translate(-152.037 -10)" fill="#ffc144" fill-rule="evenodd"/>
      <path id="Path_2134" data-name="Path 2134" d="M61.5,49.827l-7.9,2.3.3-12.319L47.251,42.2A5.5,5.5,0,0,0,44.3,45.234l-2.211,4.84c3.013-1.4,2.921,2.029,6.391,2.137,0,0-.859,4.625-8.5,2.473L36,63.411,46.538,70V67.074c2.157-2.529,3.5.632,6.7-.711,0,0,1.141,4.564-6.7,5.779V87.809l-1.317,8.936,13.5,3.952L61.5,99.38V84.2c-2.157,2.529-3.5-.632-6.7.711,0,0-1.141-4.564,6.7-5.779Z" transform="translate(-35.999 -35.884)" fill="#ffcd69" fill-rule="evenodd"/>
      <g id="Group_235" data-name="Group 235" transform="translate(3.987 13.853)">
        <path id="Path_2135" data-name="Path 2135" d="M66.262,120.108c7.638,2.153,8.5-2.473,8.5-2.473-3.47-.108-3.379-3.542-6.391-2.137Z" transform="translate(-66.262 -115.161)" fill="#5cd0b3" fill-rule="evenodd"/>
        <path id="Path_2136" data-name="Path 2136" d="M122.7,239.359c-3.2,1.344-4.545-1.818-6.7.711v5.068C123.845,243.923,122.7,239.359,122.7,239.359Z" transform="translate(-109.45 -222.734)" fill="#5cd0b3" fill-rule="evenodd"/>
        <path id="Path_2137" data-name="Path 2137" d="M185.034,338.263c-7.842,1.216-6.7,5.779-6.7,5.779,3.2-1.344,4.545,1.818,6.7-.711Z" transform="translate(-163.519 -308.873)" fill="#5cd0b3" fill-rule="evenodd"/>
        <path id="Path_2138" data-name="Path 2138" d="M282.415,363.9v5.068c7.842-1.216,6.7-5.779,6.7-5.779C285.915,364.532,284.572,361.37,282.415,363.9Z" transform="translate(-253.94 -330.25)" fill="#5cd0b3" fill-rule="evenodd"/>
      </g>
      <path id="Path_2139" data-name="Path 2139" d="M282.415,83.386c2.157-2.529,3.5.632,6.7-.711,0,0,1.141,4.564-6.7,5.779V99.38l2.78,1.317,13.5-3.952-1.317-8.936V73.492c-2.157,2.529-3.5-.632-6.7.711,0,0-1.141-4.564,6.7-5.779V70l10.539-6.587-8.3-18.177a5.5,5.5,0,0,0-2.948-3.031l-6.657-2.392.3,12.319-7.9-2.3V56.26c7.842,1.216,6.7,5.779,6.7,5.779-3.2-1.344-4.545,1.818-6.7-.711Z" transform="translate(-249.954 -35.884)" fill="#ffcd69" fill-rule="evenodd"/>
      <path id="Path_2140" data-name="Path 2140" d="M344.744,262.8c3.2-1.344,4.545,1.818,6.7-.711v-5.068C343.6,258.232,344.744,262.8,344.744,262.8Z" transform="translate(-304.022 -224.475)" fill="#5cd0b3" fill-rule="evenodd"/>
      <path id="Path_2141" data-name="Path 2141" d="M282.415,169.746c2.157,2.529,3.5-.632,6.7.711,0,0,1.141-4.564-6.7-5.779Z" transform="translate(-249.954 -144.302)" fill="#5cd0b3" fill-rule="evenodd"/>
      <path id="Path_2142" data-name="Path 2142" d="M282.415,23.943l7.9,2.3-.3-12.319-.053-2.165L286.2,10Z" transform="translate(-249.954 -10)" fill="#ffc144" fill-rule="evenodd"/>
      <path id="Path_2143" data-name="Path 2143" d="M211.608,23.943,215.391,10a15.737,15.737,0,0,1-7.263,1.759A15.736,15.736,0,0,1,200.865,10l3.784,13.943V68.226h6.96V23.943Z" transform="translate(-179.146 -10)" fill="#ffda8f" fill-rule="evenodd"/>
    </g>
    <g id="Group_237" data-name="Group 237" transform="translate(25.999 0)">
      <path id="Path_2144" data-name="Path 2144" d="M86.478,28.3l-8.3-18.178A6.8,6.8,0,0,0,74.62,6.459a1.318,1.318,0,0,0-.146-.063L68.666,4.31l-.031-1.263a1.317,1.317,0,0,0-.757-1.16L64.121.125a1.3,1.3,0,0,0-1.265.081c-.035.014-.071.029-.105.046A14.474,14.474,0,0,1,56.3,1.759,14.476,14.476,0,0,1,49.845.253c-.035-.017-.07-.032-.1-.046A1.3,1.3,0,0,0,48.475.125L44.718,1.887a1.317,1.317,0,0,0-.757,1.16L43.93,4.31,38.123,6.4a1.318,1.318,0,0,0-.146.063,6.8,6.8,0,0,0-3.554,3.661L26.118,28.3a1.318,1.318,0,0,0,.5,1.665l9.92,6.2V53.146l-1.3,8.841a1.318,1.318,0,0,0,.933,1.456l13.5,3.952a1.319,1.319,0,0,0,.934-.074L53.382,66a1.317,1.317,0,0,0,.753-1.19V60.861H58.46v3.952A1.317,1.317,0,0,0,59.214,66l2.78,1.317a1.319,1.319,0,0,0,.934.074l13.5-3.952a1.317,1.317,0,0,0,.933-1.456l-1.3-8.841V36.162l9.92-6.2a1.318,1.318,0,0,0,.5-1.665ZM66.054,5.248c0,.019,0,.039,0,.058l.258,10.488-4.925-1.436L64.422,3.176l1.6.75ZM46.575,3.927l1.6-.75,3.034,11.181-4.925,1.436ZM35.856,17.195a7.075,7.075,0,0,0,2.007,1.382,2.755,2.755,0,0,1-.343.252,6.208,6.208,0,0,1-4.357.388l1.183-2.589C34.955,16.387,35.137,16.549,35.856,17.195Zm3.317,16.013c.491-.534.705-.469,1.664-.17a7.1,7.1,0,0,0,2.4.424,2.817,2.817,0,0,1-.242.421,6.347,6.347,0,0,1-3.822,2.127ZM51.5,49.06c-.408.389-.664.311-1.535.038a7.136,7.136,0,0,0-2.4-.424,2.817,2.817,0,0,1,.242-.421A6.233,6.233,0,0,1,51.5,46.16Zm6.959,9.166H54.136V36.954a1.317,1.317,0,0,0-2.635,0v6.5c-2.835.6-4.826,1.739-5.922,3.39a5.013,5.013,0,0,0-.789,3.814,1.317,1.317,0,0,0,1.788.9,3.3,3.3,0,0,1,2.6.058,5.842,5.842,0,0,0,1.763.343,3.291,3.291,0,0,0,.559-.048V63.98l-1.574.746L38.008,61.236l1.15-7.8a1.319,1.319,0,0,0,.014-.192V38.707c2.9-.594,4.938-1.74,6.05-3.416a5.013,5.013,0,0,0,.79-3.814,1.317,1.317,0,0,0-1.788-.9,3.305,3.305,0,0,1-2.6-.058,4.7,4.7,0,0,0-2.45-.27v-5.36a1.317,1.317,0,0,0-2.635,0v8.162L29,28.341l3.046-6.668a13.742,13.742,0,0,0,3.03.374,7.148,7.148,0,0,0,3.841-.98,5.013,5.013,0,0,0,2.3-3.141,1.317,1.317,0,0,0-1.254-1.557,3.3,3.3,0,0,1-2.343-1.134,4.769,4.769,0,0,0-2.063-1.252l1.264-2.767A4.189,4.189,0,0,1,39.09,8.848l4.77-1.714-.256,10.4a1.317,1.317,0,0,0,1.686,1.3l6.21-1.811V25.1a1.317,1.317,0,1,0,2.635,0V15.261a1.315,1.315,0,0,0-.046-.345L51.009,3.564a17.285,17.285,0,0,0,5.289.83,17.285,17.285,0,0,0,5.289-.83l-3.08,11.352a1.321,1.321,0,0,0-.046.345V58.227h0ZM61.1,49.4c.414-.4.667-.322,1.545-.048a7.113,7.113,0,0,0,2.4.424,2.767,2.767,0,0,1-.208.372A6.152,6.152,0,0,1,61.1,52.292V49.4Zm0-26.108a6.241,6.241,0,0,1,3.7,2.1,2.826,2.826,0,0,1,.242.421,7.065,7.065,0,0,0-2.4.424c-.877.274-1.131.352-1.545-.048V23.29ZM73.423,38.268c-.464.488-.692.419-1.624.127a7.113,7.113,0,0,0-2.4-.424,2.817,2.817,0,0,1,.242-.421,6.312,6.312,0,0,1,3.782-2.117Zm2.635-5.213V24.893a1.317,1.317,0,0,0-2.635,0v7.842c-2.882.6-4.9,1.74-6.011,3.408a5.013,5.013,0,0,0-.79,3.814,1.317,1.317,0,0,0,1.788.9,3.3,3.3,0,0,1,2.6.058,5.842,5.842,0,0,0,1.763.343,3.26,3.26,0,0,0,.648-.064V53.242a1.338,1.338,0,0,0,.014.192l1.15,7.8L62.669,64.726,61.1,63.98V54.995c2.84-.6,4.834-1.739,5.932-3.392a5.012,5.012,0,0,0,.789-3.814,1.317,1.317,0,0,0-1.788-.9,3.3,3.3,0,0,1-2.6-.058,4.853,4.853,0,0,0-2.332-.294v-17.5a3.29,3.29,0,0,0,.569.05,5.846,5.846,0,0,0,1.763-.343,3.3,3.3,0,0,1,2.6-.058,1.317,1.317,0,0,0,1.788-.9,5.012,5.012,0,0,0-.789-3.814c-1.1-1.653-3.092-2.791-5.932-3.392v-3.57l6.21,1.811a1.317,1.317,0,0,0,1.686-1.3l-.256-10.4,4.77,1.714a4.189,4.189,0,0,1,2.272,2.367L83.6,28.341Z" transform="translate(-25.999 0)"/>
      <path id="Path_2145" data-name="Path 2145" d="M220.907,225.52h0a1.317,1.317,0,1,0,1.318,1.317A1.317,1.317,0,0,0,220.906,225.52Z" transform="translate(-194.087 -195.811)"/>
    </g>
  </g>
</svg>
